<?xml version="1.0" encoding="UTF-8" standalone="no"?>
<svg
   xmlns:dc="http://purl.org/dc/elements/1.1/"
   xmlns:cc="http://creativecommons.org/ns#"
   xmlns:rdf="http://www.w3.org/1999/02/22-rdf-syntax-ns#"
   xmlns:svg="http://www.w3.org/2000/svg"
   xmlns="http://www.w3.org/2000/svg"
   xmlns:sodipodi="http://sodipodi.sourceforge.net/DTD/sodipodi-0.dtd"
   xmlns:inkscape="http://www.inkscape.org/namespaces/inkscape"
   inkscape:version="1.0 (4035a4fb49, 2020-05-01)"
   sodipodi:docname="instagram-icon.svg"
   id="svg4"
   version="1.1"
   width="16.000025"
   viewBox="0 0 16.000025 16.000011"
   height="16.000011"
   fill="none">
  <metadata
     id="metadata10">
    <rdf:RDF>
      <cc:Work
         rdf:about="">
        <dc:format>image/svg+xml</dc:format>
        <dc:type
           rdf:resource="http://purl.org/dc/dcmitype/StillImage" />
        <dc:title></dc:title>
      </cc:Work>
    </rdf:RDF>
  </metadata>
  <defs
     id="defs8" />
  <sodipodi:namedview
     fit-margin-bottom="0"
     fit-margin-right="0"
     fit-margin-left="0"
     fit-margin-top="0"
     inkscape:pagecheckerboard="true"
     inkscape:current-layer="svg4"
     inkscape:window-maximized="1"
     inkscape:window-y="-8"
     inkscape:window-x="-8"
     inkscape:cy="7.534912"
     inkscape:cx="7.891724"
     inkscape:zoom="44.294118"
     showgrid="false"
     id="namedview6"
     inkscape:window-height="1377"
     inkscape:window-width="2560"
     inkscape:pageshadow="2"
     inkscape:pageopacity="0"
     guidetolerance="10"
     gridtolerance="10"
     objecttolerance="10"
     borderopacity="1"
     bordercolor="#666666"
     pagecolor="#ffffff" />
  <path
     style="fill:#ffffff;fill-opacity:1"
     id="path2"
     fill="black"
     d="m 13.060024,3.820002 c 0,0.1216 -0.024,0.24202 -0.0705,0.35436 -0.0465,0.11235 -0.1148,0.21443 -0.2007,0.30042 -0.086,0.08599 -0.1881,0.15419 -0.3005,0.20073 -0.1123,0.04654 -0.2327,0.07049 -0.3543,0.07049 -0.1216,0 -0.242,-0.02395 -0.3544,-0.07049 -0.1123,-0.04654 -0.2144,-0.11474 -0.3004,-0.20073 -0.086,-0.08599 -0.1542,-0.18807 -0.2007,-0.30042 -0.0466,-0.11234 -0.0705,-0.23276 -0.0705,-0.35436 0,-0.24559 0.0975,-0.48112 0.2712,-0.65478 0.1737,-0.17366 0.4092,-0.27122 0.6548,-0.27122 0.2456,0 0.4811,0.09756 0.6548,0.27122 0.1736,0.17366 0.2712,0.40919 0.2712,0.65478 z m 2.94,4.18 v 0.012 l -0.053,3.35601 c -0.0135,1.2103 -0.5003,2.3673 -1.3561,3.2232 -0.8557,0.856 -2.0126,1.343 -3.2229,1.3568 l -3.36802,0.052 h -0.012 l -3.356,-0.053 c -1.21033,-0.0135 -2.36729,-0.5003 -3.22326,-1.356 -0.85598,-0.8558 -1.342969,-2.0127 -1.356744,-3.223 L 0,8.000002 v -0.012 l 0.053,-3.356 c 0.01351,-1.21033 0.500244,-2.36729 1.356034,-3.22326 0.85579,-0.85598 2.01264,-1.34297 3.22297,-1.35674 L 8.000004,0 h 0.012 l 3.35602,0.053002 c 1.2103,0.01351 2.3673,0.50024 3.2232,1.35603 0.856,0.85579 1.343,2.01264 1.3568,3.22297 z m -1.49,0 -0.052,-3.345 c -0.0094,-0.82272 -0.3404,-1.6091 -0.9221,-2.19089 -0.5818,-0.58178 -1.3682,-0.91276 -2.1909,-0.92211 l -3.34502,-0.052 -3.345,0.052 c -0.82272,0.00935 -1.6091,0.34033 -2.19089,0.92211 -0.58178,0.58179 -0.91276,1.36817 -0.92211,2.19089 l -0.052,3.345 0.052,3.34501 c 0.00935,0.8227 0.34033,1.6091 0.92211,2.1909 0.58179,0.5818 1.36817,0.9127 2.19089,0.9221 l 3.345,0.052 3.34502,-0.052 c 0.8227,-0.0094 1.6091,-0.3403 2.1909,-0.9221 0.5817,-0.5818 0.9127,-1.3682 0.9221,-2.1909 z m -2.402,0 c 0,1.08951 -0.4328,2.13441 -1.2032,2.90481 -0.7704,0.7704 -1.81531,1.2032 -2.90482,1.2032 -1.08951,0 -2.1344,-0.4328 -2.9048,-1.2032 -0.7704,-0.7704 -1.2032,-1.8153 -1.2032,-2.90481 0,-1.08951 0.4328,-2.1344 1.2032,-2.9048 0.7704,-0.7704 1.81529,-1.2032 2.9048,-1.2032 1.08951,0 2.13442,0.4328 2.90482,1.2032 0.7704,0.7704 1.2032,1.81529 1.2032,2.9048 z m -1.49,0 c 0,-0.69434 -0.2758,-1.36024 -0.7668,-1.85121 -0.49099,-0.49097 -1.15689,-0.76679 -1.85122,-0.76679 -0.69434,0 -1.36024,0.27582 -1.85121,0.76679 -0.49097,0.49097 -0.76679,1.15687 -0.76679,1.85121 0,0.69433 0.27582,1.36021 0.76679,1.85121 0.49097,0.491 1.15687,0.7668 1.85121,0.7668 0.69433,0 1.36023,-0.2758 1.85122,-0.7668 0.491,-0.491 0.7668,-1.15688 0.7668,-1.85121 z" />
</svg>
