<?xml version="1.0" encoding="UTF-8" standalone="no"?>
<svg
   xmlns:dc="http://purl.org/dc/elements/1.1/"
   xmlns:cc="http://creativecommons.org/ns#"
   xmlns:rdf="http://www.w3.org/1999/02/22-rdf-syntax-ns#"
   xmlns:svg="http://www.w3.org/2000/svg"
   xmlns="http://www.w3.org/2000/svg"
   xmlns:sodipodi="http://sodipodi.sourceforge.net/DTD/sodipodi-0.dtd"
   xmlns:inkscape="http://www.inkscape.org/namespaces/inkscape"
   inkscape:version="1.0 (4035a4fb49, 2020-05-01)"
   sodipodi:docname="label.svg"
   id="svg854"
   version="1.1"
   viewBox="0 0 24 24"
   focusable="false"
   role="presentation"
   height="24"
   width="24">
  <metadata
     id="metadata860">
    <rdf:RDF>
      <cc:Work
         rdf:about="">
        <dc:format>image/svg+xml</dc:format>
        <dc:type
           rdf:resource="http://purl.org/dc/dcmitype/StillImage" />
        <dc:title></dc:title>
      </cc:Work>
    </rdf:RDF>
  </metadata>
  <defs
     id="defs858" />
  <sodipodi:namedview
     inkscape:current-layer="svg854"
     inkscape:window-maximized="1"
     inkscape:window-y="-8"
     inkscape:window-x="-8"
     inkscape:cy="10.247066"
     inkscape:cx="4.2698635"
     inkscape:zoom="16.366576"
     showgrid="false"
     id="namedview856"
     inkscape:window-height="1377"
     inkscape:window-width="2560"
     inkscape:pageshadow="2"
     inkscape:pageopacity="0"
     guidetolerance="10"
     gridtolerance="10"
     objecttolerance="10"
     borderopacity="1"
     bordercolor="#666666"
     pagecolor="#ffffff" />
  <path
     style="stroke-width:0.999996"
     id="path852"
     d="m 5.5238095,14.666667 c 0,-0.974476 0.3718096,-1.949714 1.1161905,-2.693334 L 9.3333334,9.3333336 13.142857,5.5238098 18.47619,10.857143 14.287238,15.046096 C 14.312388,15.074286 12.026667,17.36 12.026667,17.36 10.538667,18.848 8.1264763,18.848 6.64,17.36 5.895619,16.616381 5.5238095,15.641143 5.5238095,14.666667 M 4,14.666667 c 0,1.424762 0.5554286,2.76419 1.5626667,3.770667 C 6.568381,19.444571 7.9078095,20 9.3325715,20 10.757333,20 12.096762,19.444571 13.104,18.437334 l 2.285714,-2.285715 c 0.08152,-0.08152 0.153143,-0.172952 0.212572,-0.266667 l 3.951238,-3.951999 C 19.851428,11.635048 20,11.247238 20,10.856381 20,10.465524 19.851428,10.077714 19.553524,9.7790479 L 14.22019,4.4457146 c -0.595047,-0.5942858 -1.559619,-0.5942858 -2.154667,0 L 8.2560001,8.2552383 5.5733334,10.88381 C 4.5554287,11.902476 4.0000001,13.241905 4,14.666667 Z m 4.1889523,0 c 0,-0.631619 0.5120001,-1.142857 1.1443811,-1.142857 0.6323809,0 1.1413326,0.511238 1.1413326,1.142857 0,0.631619 -0.5089517,1.142857 -1.1413326,1.142857 -0.632381,0 -1.144381,-0.511238 -1.144381,-1.142857 m -0.7619047,0 c 0,1.050666 0.8548571,1.904762 1.9062857,1.904762 1.0491426,0 1.9032386,-0.854096 1.9032386,-1.904762 0,-1.050666 -0.854096,-1.904762 -1.9032386,-1.904762 -1.0514286,0 -1.9062857,0.854096 -1.9062857,1.904762 z" />
</svg>
