<?xml version="1.0" encoding="UTF-8" standalone="no"?>
<svg
   xmlns:dc="http://purl.org/dc/elements/1.1/"
   xmlns:cc="http://creativecommons.org/ns#"
   xmlns:rdf="http://www.w3.org/1999/02/22-rdf-syntax-ns#"
   xmlns:svg="http://www.w3.org/2000/svg"
   xmlns="http://www.w3.org/2000/svg"
   xmlns:sodipodi="http://sodipodi.sourceforge.net/DTD/sodipodi-0.dtd"
   xmlns:inkscape="http://www.inkscape.org/namespaces/inkscape"
   inkscape:version="1.0 (4035a4fb49, 2020-05-01)"
   sodipodi:docname="youtube-icon.svg"
   id="svg4"
   xml:space="preserve"
   width="100%"
   viewBox="0 0 512 512"
   version="1.1"
   style="fill-rule:evenodd;clip-rule:evenodd;stroke-linejoin:round;stroke-miterlimit:2;"
   height="100%"><metadata
     id="metadata10"><rdf:RDF><cc:Work
         rdf:about=""><dc:format>image/svg+xml</dc:format><dc:type
           rdf:resource="http://purl.org/dc/dcmitype/StillImage" /></cc:Work></rdf:RDF></metadata><defs
     id="defs8" /><sodipodi:namedview
     inkscape:current-layer="svg4"
     inkscape:window-maximized="1"
     inkscape:window-y="-8"
     inkscape:window-x="-8"
     inkscape:cy="256"
     inkscape:cx="256"
     inkscape:zoom="1.4707031"
     showgrid="false"
     id="namedview6"
     inkscape:window-height="1377"
     inkscape:window-width="2560"
     inkscape:pageshadow="2"
     inkscape:pageopacity="0"
     guidetolerance="10"
     gridtolerance="10"
     objecttolerance="10"
     borderopacity="1"
     bordercolor="#666666"
     pagecolor="#ffffff" /><path
     id="path2"
     style="fill-rule:nonzero;fill:#ffffff;fill-opacity:1"
     d="M501.303,132.765c-5.887,-22.03 -23.235,-39.377 -45.265,-45.265c-39.932,-10.7 -200.038,-10.7 -200.038,-10.7c0,0 -160.107,0 -200.039,10.7c-22.026,5.888 -39.377,23.235 -45.264,45.265c-10.697,39.928 -10.697,123.238 -10.697,123.238c0,0 0,83.308 10.697,123.232c5.887,22.03 23.238,39.382 45.264,45.269c39.932,10.696 200.039,10.696 200.039,10.696c0,0 160.106,0 200.038,-10.696c22.03,-5.887 39.378,-23.239 45.265,-45.269c10.696,-39.924 10.696,-123.232 10.696,-123.232c0,0 0,-83.31 -10.696,-123.238Zm-296.506,200.039l0,-153.603l133.019,76.802l-133.019,76.801Z" /></svg>
